<mxfile host="app.diagrams.net" modified="2024-02-27T19:38:51.036Z" agent="Mozilla/5.0 (Windows NT 10.0; Win64; x64) AppleWebKit/537.36 (KHTML, like Gecko) Chrome/121.0.0.0 Safari/537.36" version="23.1.7" etag="7EhMg8OFff5rou2bs_89" type="github">
  <diagram name="PÃ¡gina-1" id="1FGYjJXjsvljf9vEH6mb">
    <mxGraphModel>
      <root>
        <mxCell id="0" />
        <mxCell id="1" parent="0" />
      </root>
    </mxGraphModel>
  </diagram>
</mxfile>
